<?xml version="1.0" standalone="no"?>
<!DOCTYPE svg PUBLIC "-//W3C//DTD SVG 1.1//EN" "http://www.w3.org/Graphics/SVG/1.1/DTD/svg11.dtd">
<svg width="800" height="600" version="1.1" xmlns="http://www.w3.org/2000/svg">
<rect width="800" height="600" x="0" y="0" style="fill:rgb(238,238,238);stroke:none"/>
<rect width="800" height="600" x="0" y="0" style="fill:rgb(255,255,255);stroke:none"/>
<text x="2" y="566" fill="rgb(0,0,0)" font-family="Arial" font-size="12">0</text>
<text x="2" y="512" fill="rgb(0,0,0)" font-family="Arial" font-size="12">2000000</text>
<text x="2" y="457" fill="rgb(0,0,0)" font-family="Arial" font-size="12">4000000</text>
<text x="2" y="402" fill="rgb(0,0,0)" font-family="Arial" font-size="12">6000000</text>
<text x="2" y="347" fill="rgb(0,0,0)" font-family="Arial" font-size="12">8000000</text>
<text x="2" y="292" fill="rgb(0,0,0)" font-family="Arial" font-size="12">1.0E7</text>
<text x="2" y="238" fill="rgb(0,0,0)" font-family="Arial" font-size="12">1.2E7</text>
<text x="2" y="183" fill="rgb(0,0,0)" font-family="Arial" font-size="12">1.4E7</text>
<text x="2" y="128" fill="rgb(0,0,0)" font-family="Arial" font-size="12">1.6E7</text>
<text x="2" y="73" fill="rgb(0,0,0)" font-family="Arial" font-size="12">1.8E7</text>
<text x="273" y="30" fill="rgb(0,0,0)" font-family="Arial" font-size="12">Distribution of sequence lengths over all sequences</text>
<line x1="54" y1="560" x2="790" y2="560" stroke="rgb(0,0,0)" stroke-width="1"/>
<line x1="54" y1="560" x2="54" y2="40" stroke="rgb(0,0,0)" stroke-width="1"/>
<text x="338" y="595" fill="rgb(0,0,0)" font-family="Arial" font-size="12">Sequence Length (bp)</text>
<text x="169" y="575" fill="rgb(0,0,0)" font-family="Arial" font-size="12">75</text>
<rect width="245" height="520" x="299" y="40" style="fill:rgb(230,230,230);stroke:none"/>
<text x="414" y="575" fill="rgb(0,0,0)" font-family="Arial" font-size="12">76</text>
<text x="659" y="575" fill="rgb(0,0,0)" font-family="Arial" font-size="12">77</text>
<line x1="54" y1="560" x2="790" y2="560" stroke="rgb(180,180,180)" stroke-width="1"/>
<line x1="54" y1="506" x2="790" y2="506" stroke="rgb(180,180,180)" stroke-width="1"/>
<line x1="54" y1="451" x2="790" y2="451" stroke="rgb(180,180,180)" stroke-width="1"/>
<line x1="54" y1="396" x2="790" y2="396" stroke="rgb(180,180,180)" stroke-width="1"/>
<line x1="54" y1="341" x2="790" y2="341" stroke="rgb(180,180,180)" stroke-width="1"/>
<line x1="54" y1="286" x2="790" y2="286" stroke="rgb(180,180,180)" stroke-width="1"/>
<line x1="54" y1="232" x2="790" y2="232" stroke="rgb(180,180,180)" stroke-width="1"/>
<line x1="54" y1="177" x2="790" y2="177" stroke="rgb(180,180,180)" stroke-width="1"/>
<line x1="54" y1="122" x2="790" y2="122" stroke="rgb(180,180,180)" stroke-width="1"/>
<line x1="54" y1="67" x2="790" y2="67" stroke="rgb(180,180,180)" stroke-width="1"/>
<line x1="176" y1="560" x2="421" y2="40" stroke="rgb(136,34,85)" stroke-width="1"/>
<line x1="421" y1="40" x2="666" y2="560" stroke="rgb(136,34,85)" stroke-width="1"/>
<rect width="109" height="23" x="681" y="40" style="fill:rgb(255,255,255);stroke:none"/>
<rect width="109" height="23" x="681" y="40" rx="0" ry="0" style="fill:none;stroke-width:1;stroke:rgb(192,192,192)"/>
<text x="684" y="55" fill="rgb(136,34,85)" font-family="Arial" font-size="12" font-weight="bold">Sequence Length</text>
</svg>
